# xmcd
#
# Track frame offsets:
#	150
#	4631
#	26033
#	44859
#	67885
#	87068
#	121604
#	155155
#	178381
#	215768
#	250914
#	278338
#	300950
#
# Disc length: 4351 seconds
#
# Revision: 1
# Processed by: cddbd v1.5PL3 Copyright (c) Steve Scherf et al.
# Submitted via: CDmax 2.0
#
DISCID=aa10fd0d
DTITLE=The Original Hot Tuna w/ Barry Mitterhoff - Live at the Aladdin Theate
DTITLE=r, 01.17.04 - D1
DYEAR=2004
DGENRE=Blues
TTITLE0=Intro
TTITLE1=Big River Blues
TTITLE2=Waiting For A Train
TTITLE3=How Long Blues
TTITLE4=I'll Let You Know Before I Leave
TTITLE5=Prohibition Blues
TTITLE6=Death Don't Have No Mercy
TTITLE7=Do Not Go Gentle
TTITLE8=Serpent Of Dreams
TTITLE9=That'll Never Happen No More
TTITLE10=Heart Temporary
TTITLE11=Blues,Stay Away From Me
TTITLE12=San Francisco Bay Blues
EXTD=Hot Tuna w/ Barry Mitterhoff\n1-17-04\nAlladin Theater-Portland,OR\n\nOk
EXTD=tava 012 hypercards x-y ~40 ft. center at the balcony > Sound devices mp
EXTD=2 > Sony D3 analog @ 48khz.\nMaster dat to a fostex D5 > Marantz 630(cdr
EXTD=)>eac>cdwav(tracking)>flac\n\nDisc 1 (72:24]\n01. Intro (:59]\n02. Big R
EXTD=iver Blues (4:45]\n03. Waiting For A Train (4:11]\n04. How Long Blues (5
EXTD=:07]\n05. I'll Let You Know Before I Leave (4:15]\n06. Prohibition Blue
EXTD=s (7:40]\n07. Death Don't Have No Mercy (7:27]\n08. Do Not Go Gentle (5:
EXTD=09]\n09. Serpent Of Dreams (8:18]\n10. That'll Never Happen No More (7:4
EXTD=8]\n11. Heart Temporary (6:05]\n12. Blues,Stay Away From Me (5:01]\n13
EXTD=San Francisco Bay Blues (5:39]\n\nDisc 2 (45:40)]\n01. Banter (1:06]\n
EXTD=02. Living In The Moment (6:55]\n03. Good Shephard (16:04]\n04. Uncle Sa
EXTD=m Blues (9:13]\n05. Just Because (6:05]\n06. Hesitation Blues (6:17]\n\n
EXTD=\nTaped,And Transferred To Untracked Cdr By JP Flanery\nEac,Tracking,An
EXTD=d Flac Conversion By Jason Flair\nSeeded Via Bit Torrent Feb. 2004
EXTT0=
EXTT1=
EXTT2=
EXTT3=
EXTT4=
EXTT5=
EXTT6=
EXTT7=
EXTT8=
EXTT9=
EXTT10=
EXTT11=
EXTT12=
PLAYORDER=
